# xmcd
# Copyright (C) 1995-1998 Ti Kan
#
# Track frame offsets:
#       150
#       11793
#       26120
#       38692
#       55924
#       68002
#       80244
#       97010
#       118629
#       137578
#       154029
#       163915
#       177059
#       194160
#       209949
#       228267
#       245713
#       262038
#       279196
#       297902
#
# Disc length: 4148 seconds
#
# Revision: 0
# Processed by: cddbd v1.5.2PL0 Copyright (c) Steve Scherf et al.
# Submitted via: CD-Transfer v1.0
#
DISCID=30103214
DTITLE=Los Lobos - D. Hidalgo, C. Rosas, Perez
DYEAR=1900
DGENRE=
TTITLE0=Let's Say Goddnight
TTITLE1=Anselma
TTITLE2=Don't Worry Baby
TTITLE3=A Matter Of Time
TTITLE4=Corrido #1
TTITLE5=Evangeline
TTITLE6=Will The Wolf Survive
TTITLE7=One Time, One Night
TTITLE8=Shakin' Shakin' Shakes
TTITLE9=Set Me Free (Rosa Lee)
TTITLE10=Come On, Let's Go
TTITLE11=La Bamba
TTITLE12=Volver, Volver (Live)
TTITLE13=La Pistola Y El Corazon
TTITLE14=Jenny's Got A Pony
TTITLE15=That Train Don't Stop Here
TTITLE16=Kiko And The Lavender Moon
TTITLE17=Oh Yeah
TTITLE18=Good Morning Atzlan
TTITLE19=Border Town Girl
EXTD=
EXTT0=
EXTT1=
EXTT2=
EXTT3=
EXTT4=
EXTT5=
EXTT6=
EXTT7=
EXTT8=
EXTT9=
EXTT10=
EXTT11=
EXTT12=
EXTT13=
EXTT14=
EXTT15=
EXTT16=
EXTT17=
EXTT18=
EXTT19=
PLAYORDER=
